<?xml version="1.0" encoding="utf-8"?>
<!-- Generator: Adobe Illustrator 24.2.3, SVG Export Plug-In . SVG Version: 6.00 Build 0)  -->
<svg width="255" height="70px" version="1.1" id="Layer_1" xmlns="http://www.w3.org/2000/svg" xmlns:xlink="http://www.w3.org/1999/xlink" x="0px" y="0px"
	 viewBox="0 0 510 140" style="enable-background:new 0 0 510 140;" xml:space="preserve">
<style type="text/css">
	.st0{fill:#23B7E5;}
	.st1{fill:none;stroke:#23B7E5;stroke-width:6;stroke-miterlimit:10;}
</style>
<g>
	<path class="st0" d="M60.8,41.15c5.47,0,9.74,1.95,12.82,5.85c3.67,4.62,5.5,12.28,5.5,22.98c0,10.68-1.85,18.35-5.54,23.02
		c-3.05,3.85-7.31,5.77-12.78,5.77c-5.49,0-9.92-2.11-13.28-6.33c-3.36-4.22-5.04-11.75-5.04-22.57c0-10.62,1.85-18.27,5.54-22.94
		C51.07,43.07,55.33,41.15,60.8,41.15z M60.8,50.12c-1.31,0-2.48,0.42-3.5,1.25c-1.03,0.83-1.82,2.33-2.39,4.48
		c-0.74,2.8-1.12,7.51-1.12,14.13c0,6.62,0.33,11.17,1,13.64c0.67,2.48,1.51,4.13,2.52,4.95c1.01,0.82,2.17,1.23,3.48,1.23
		c1.31,0,2.48-0.42,3.5-1.25c1.03-0.83,1.82-2.33,2.39-4.48c0.74-2.77,1.12-7.47,1.12-14.09c0-6.62-0.33-11.17-1-13.64
		c-0.67-2.48-1.51-4.13-2.52-4.97C63.27,50.53,62.11,50.12,60.8,50.12z"/>
</g>
<g>
	<path class="st0" d="M190.95,97.81h-10.82V57.05c-3.95,3.7-8.61,6.43-13.97,8.2v-9.82c2.82-0.92,5.89-2.67,9.2-5.25
		c3.31-2.58,5.58-5.59,6.81-9.03h8.78V97.81z"/>
</g>
<g>
	<path class="st0" d="M249.38,67.3V56.48h10.82V67.3H249.38z M249.38,97.36V86.54h10.82v10.82H249.38z"/>
</g>
<g>
	<path class="st0" d="M330.39,97.81V86.45H307.3v-9.47l24.48-35.83h9.08v35.8h7.01v9.51h-7.01v11.35H330.39z M330.39,76.95V57.66
		l-12.97,19.28H330.39z"/>
</g>
<g>
	<path class="st0" d="M429.94,52.2V42.15h36.99V50c-3.05,3-6.16,7.31-9.31,12.93c-3.16,5.62-5.56,11.59-7.22,17.92
		c-1.66,6.33-2.47,11.98-2.44,16.96h-10.43c0.18-7.8,1.79-15.76,4.83-23.86c3.04-8.11,7.1-15.36,12.18-21.75H429.94z"/>
</g>
<rect x="7" y="6.52" class="st1" width="108.16" height="126.95"/>
<rect x="127.7" y="6.52" class="st1" width="108.16" height="126.95"/>
<rect x="274.09" y="6.52" class="st1" width="108.16" height="126.95"/>
<rect x="394.84" y="6.52" class="st1" width="108.16" height="126.95"/>
</svg>
