<?xml version="1.0" encoding="utf-8"?>
<!-- Generator: Adobe Illustrator 24.2.3, SVG Export Plug-In . SVG Version: 6.00 Build 0)  -->
<svg width="302px" height="48px" version="1.1" id="Layer_1" xmlns="http://www.w3.org/2000/svg" xmlns:xlink="http://www.w3.org/1999/xlink" x="0px" y="0px"
	 viewBox="0 0 302 48" style="enable-background:new 0 0 302 48;" xml:space="preserve">
<style type="text/css">
	.st0{fill:#5F646B;}
	.st1{fill:#23B7E5;}
	.st2{fill:#E95444;}
	.st3{fill:#FFFFFF;}
</style>
<g>
	<path class="st0" d="M68.16,31.03v15.19H57.37V1.44h17.87c3.42,0,6.45,0.63,9.09,1.89c2.63,1.26,4.67,3.06,6.12,5.38
		c1.45,2.33,2.17,4.97,2.17,7.92c0,4.37-1.56,7.86-4.69,10.47c-3.13,2.61-7.42,3.92-12.87,3.92H68.16z M68.16,22.69h7.07
		c2.09,0,3.69-0.52,4.78-1.57c1.1-1.05,1.65-2.52,1.65-4.43c0-2.09-0.56-3.76-1.69-5.01c-1.13-1.25-2.67-1.89-4.61-1.91h-7.2V22.69z
		"/>
	<path class="st0" d="M109.16,37.92h18.79v8.3H98.37V1.44h10.79V37.92z"/>
	<path class="st0" d="M158.52,37.86h-14.79l-2.58,8.37h-11.53l16.42-44.78h10.15l16.55,44.78h-11.59L158.52,37.86z M146.31,29.52
		h9.63l-4.83-15.53L146.31,29.52z"/>
	<path class="st0" d="M187.77,20.88l8.24-19.44h11.66l-14.42,28.69v16.08H182.3V30.14L167.9,1.44h11.59L187.77,20.88z"/>
	<path class="st0" d="M209.76,36.16c1.64,0,3,0.49,4.09,1.46c1.09,0.97,1.63,2.22,1.63,3.74s-0.54,2.76-1.63,3.74
		c-1.09,0.97-2.45,1.46-4.09,1.46c-1.66,0-3.03-0.49-4.11-1.48c-1.08-0.98-1.61-2.22-1.61-3.72s0.54-2.74,1.61-3.72
		C206.73,36.66,208.1,36.16,209.76,36.16z"/>
	<path class="st1" d="M240.24,34.04l8.92-32.6h12.06l-15.07,44.78h-11.81L219.39,1.44h11.96L240.24,34.04z"/>
	<path class="st1" d="M300.3,31.06c-0.14,3.12-0.98,5.87-2.52,8.26c-1.54,2.39-3.7,4.24-6.47,5.55c-2.78,1.31-5.95,1.97-9.52,1.97
		c-5.88,0-10.52-1.92-13.9-5.75c-3.38-3.83-5.07-9.25-5.07-16.24v-2.21c0-4.39,0.76-8.23,2.29-11.52c1.53-3.29,3.73-5.83,6.6-7.63
		c2.87-1.79,6.19-2.69,9.96-2.69c5.43,0,9.8,1.43,13.1,4.29c3.3,2.86,5.18,6.8,5.63,11.83h-10.76c-0.08-2.73-0.77-4.69-2.06-5.87
		c-1.29-1.19-3.26-1.78-5.91-1.78c-2.69,0-4.66,1-5.91,3.01c-1.25,2.01-1.91,5.22-1.97,9.63v3.17c0,4.78,0.6,8.19,1.8,10.24
		c1.2,2.05,3.26,3.08,6.2,3.08c2.48,0,4.38-0.58,5.69-1.75s2.01-3.02,2.09-5.57H300.3z"/>
</g>
<g>
	<circle class="st2" cx="24.6" cy="23.22" r="23"/>
	<polygon class="st3" points="40.84,23.22 16.37,38.22 16.37,8.22 40.84,23.22 	"/>
</g>
<g>
</g>
<g>
</g>
<g>
</g>
<g>
</g>
<g>
</g>
<g>
</g>
</svg>
