<?xml version="1.0" encoding="utf-8"?>
<!-- Generator: Adobe Illustrator 24.2.3, SVG Export Plug-In . SVG Version: 6.00 Build 0)  -->
<svg width="280px" height="164px" version="1.1" xmlns="http://www.w3.org/2000/svg" xmlns:xlink="http://www.w3.org/1999/xlink" x="0px" y="0px"
	 viewBox="0 0 255 149.38" style="enable-background:new 0 0 255 149.38;" xml:space="preserve">
<style type="text/css">
	.st0{opacity:0.8;}
	.st1{fill:#5F646B;}
	.st2{fill:#23B7E5;}
	.st3{fill:#E95444;}
</style>
<g id="background">
</g>
<g id="people">
	<g class="st0">
		<path class="st1" d="M150,71.8c-0.05-0.67-0.75-1.42-0.63-1.99c0.5-0.28,0.74-2.91,0.48-3.47c0.23,0.31,0.45,0.87,0.58,1.28
			c-0.11-1.56-0.18-3.44-0.92-4.85c-0.13,0.1-0.44,0.12-0.58,0.22c-0.03-0.91,0.19-0.75,0.5-1.45c-0.57-0.24-1.21-0.28-1.51-0.8
			c-0.3-0.52,0.03-1.82-0.79-1.91c0.03-0.14-0.04-0.38-0.02-0.51c-0.95,0.25-1.37-2.45-1.73-3.09c-0.02,0.32-0.12,0.82-0.25,1.11
			c-0.04-0.72-0.02-1.4-0.52-1.95c-0.03,0.06-0.11,0.18-0.14,0.23c-0.16-0.42-0.05-1.04-0.17-1.54c-0.12-0.53-0.46-0.86-0.62-1.29
			c-0.06-0.18,0.04-0.52-0.01-0.72c-0.09-0.37-0.36-0.63-0.47-0.98c-0.1-0.31-0.07-0.7-0.16-1.03c-0.27,0.3-0.6,0.57-0.89,0.85
			c-0.02-0.49-0.3-1.34-0.81-1.39c-0.47,0.74-0.88-0.72-1.3-0.95c-0.39-0.21-1.03,0.22-1.4-0.03c-0.29-0.2-0.62-0.96-0.97-1.26
			c-0.13,0.11-0.28,0.09-0.41,0.22c-0.48-0.35-1.44-1.99-2.07-1.86c-0.51,0.1-0.37,0.59-0.97,0.47c-0.77-0.15-1.64-1.99-2.55-1.64
			c-0.28,0.11-0.45,0.8-0.72,1c0.01-0.46-0.2-0.94-0.6-1.11c-0.61-0.27-0.46,0.07-0.93,0.31c-1.07,0.53-1-0.6-1.93-0.7
			c-0.42-0.05-0.45,0.42-0.71,0.48c-0.6,0.13-1.19-0.45-1.62-0.82c-0.58-0.5-1.14-1.01-1.65-1.58c-0.59,0.33-0.96,1.57-1.4,2.17
			c-0.27-0.38-0.22-0.87-0.64-1.25c-0.3-0.27-0.69-0.33-1.02-0.52c-0.58,0.57-0.51,2.26-1.31,2.54c-0.17-0.73-0.45-1.45-0.92-2.02
			c-1.15,0.82-1.09,3.46-1.95,4.72c-0.05-0.49,0.06-0.92,0.14-1.37c-0.2,1.26-0.92,1.9-1.5,2.97c0.02-0.39-0.4-1.6-0.66-1.91
			c-0.57,0.52-1.21,1.53-1.6,2.21c-0.02-0.35-0.16-0.7-0.45-0.88c-0.51,0.91-0.91,1.89-1.42,2.8c-0.47,0.85-0.84,2.29-1.59,2.89
			c0.05-0.34,0.03-0.71-0.21-0.93c-0.46,1.48-2.08,1.9-2.98,2.86c0.34,0.56-0.89,2.34-0.98,3.09c0.3-0.3,0.62-0.04,0.99,0.08
			c-0.06,1.23-2.39,2-2.19,3.21c0.95-0.05-0.15,1.12-0.08,1.7c0.03,0.21,0.34,0.21,0.36,0.45c0.04,0.38-0.18,0.59-0.3,0.92
			c-0.24,0.69-0.47,1.24-0.29,1.88c0.04,0.15,0.3,0.24,0.36,0.44c0.1,0.34-0.08,0.8-0.17,1.13c-0.23,0.85-0.9,1.6-1.08,2.44
			c-0.13,0.61-0.06,1.19-0.27,1.82c-0.2,0.61-0.63,1.29-0.69,1.94c-0.52,0.9-0.81,2.1-0.54,3.34c0.09,0.4,0.22,1.1,0.38,1.96
			c1.44,7.59,1.95,9.05,2.66,9.35c0.77,0.33,1.8,1.05,2.38,1.83c0.02,2.61,0.39,6.06,2,9.05c2.05,3.81,6.11,10.43,10.2,11.93
			c1.77,0.65,3.43,1.19,5.76,1.19c0.5,0,1.03-0.03,1.57-0.08c0.54,0.05,1.07,0.08,1.57,0.08c0,0,0,0,0,0c2.33,0,3.99-0.54,5.76-1.19
			c4.09-1.5,8.14-8.12,10.2-11.93c1.61-2.99,1.98-6.44,2-9.05c0.59-0.78,1.62-1.5,2.38-1.83c0.71-0.3,1.22-1.76,2.66-9.35
			c0.16-0.86,0.3-1.56,0.38-1.96c0.37-1.7-0.33-3.32-1.19-4.21C149.98,72.95,150.04,72.36,150,71.8z M111.23,58.74
			c0.04,0.28-0.05,0.48-0.13,0.69C111.16,59.19,111.21,58.96,111.23,58.74z M106.73,87.37l-0.02,0.34c-0.03,0.37-0.06,0.85-0.09,1.4
			c-0.6-0.51-1.26-0.92-1.83-1.17c-0.56-0.82-1.57-6.16-2.01-8.47c-0.17-0.88-0.3-1.59-0.39-2c-0.27-1.22,0.26-2.36,0.77-2.96
			c0.14-0.03,0.27-0.03,0.38,0.02c0.49,0.23,0.38,1.4,0.26,1.94c-0.14,0.65-0.63,1.1-0.55,1.82c0.08,0.74,0.39,1.16,0.25,1.96
			c0.46-0.4,0.48-1.51,1.16-1.41c0.08,0.5-0.21,1.16-0.05,1.65c0.19,0.57,0.68,0.81,0.95,0.22c0.55,0.45,0.86,1.98,1.09,3
			C106.73,85.46,106.77,86.87,106.73,87.37z M144.24,87.45l0.02,0.35c0.15,2.01,0.53,7.34-1.73,11.54
			c-3.35,6.22-6.82,10.36-9.52,11.35c-1.66,0.61-3.2,1.11-5.32,1.11c-0.48,0-0.99-0.03-1.51-0.08l-0.06-0.01l-0.06,0.01
			c-0.52,0.05-1.03,0.08-1.51,0.08c-2.12,0-3.67-0.5-5.32-1.11c-2.7-0.99-6.17-5.12-9.52-11.35c-2.26-4.21-1.88-9.54-1.73-11.54
			l0.02-0.35c0.04-0.63-0.02-2.54-0.11-4.78c0.1-1.09,0.2-2.18,0.24-3.3c0-0.03,0-0.07,0-0.1c0.26,0.13,0.5,0.27,0.69,0.39
			c0.19,0.77,0.45,1.97,0.57,3.36c0.21,2.36,1.82,3.9,3.69,4.56c1.86,0.65,5.16,0.31,5.16,0.31c1.65,0,4.02-1.05,5.22-3.62
			c0,0,0.92-2.57,1.17-4.76c0.53-0.31,1.26-0.65,1.96-0.65c0.61,0,1.25,0.26,1.75,0.53c0.24,2.22,1.19,4.88,1.19,4.88
			c1.2,2.57,3.57,3.62,5.22,3.62c0,0,3.29,0.35,5.16-0.31c1.86-0.65,3.48-2.2,3.69-4.56c0.12-1.31,0.35-2.46,0.54-3.23
			c0.1-0.07,0.22-0.14,0.35-0.23C144.33,82.96,144.18,86.54,144.24,87.45z M109.71,79.1c0-1.99,1.63-3.27,3.27-3.27
			c0,0,4.18-0.21,6.13,0c1.95,0.21,4.47,0.95,4.47,3.4c0,0-0.25,2.85-0.83,4.26c-0.58,1.41-1.77,2.8-3.31,3.27
			c-1.55,0.47-5.28,0.21-5.28,0.21c-1.65,0-3.65-2.08-3.65-3.73C110.52,83.23,109.71,80.84,109.71,79.1z M129.41,79.22
			c0-2.44,2.53-3.19,4.47-3.4c1.95-0.21,6.13,0,6.13,0c1.65,0,3.27,1.29,3.27,3.27c0,1.74-0.81,4.13-0.81,4.13
			c0,1.65-2,3.73-3.65,3.73c0,0-3.74,0.26-5.28-0.21c-1.55-0.47-2.73-1.86-3.31-3.27C129.66,82.07,129.41,79.22,129.41,79.22z
			 M144.59,77.55h-0.26c-0.22-1.51-1.09-3.2-4.35-3.52c-4.23-0.41-7.83,0.5-7.83,0.5c-1.63,0.52-3.29,1.34-3.74,3.02h-3.82
			c-0.44-1.68-2.1-2.5-3.74-3.02c0,0-3.6-0.91-7.83-0.5c-3.27,0.32-4.13,2.01-4.35,3.52h-0.52c-0.02-1.88-0.12-3.73,0.15-5.59
			c0.16-1.13,0.09-2.25,0.35-3.34c0.26-1.05,0.62-2.03,1.07-3c0.57-1.24,0.33-2.58,0.62-3.87c0.15-0.68,0.49-1.43,0.7-2.13
			c-0.01,0.04-0.02,0.07-0.03,0.11c-0.06,0.47-0.03,1.14,0.05,1.59c0.48-0.63,0.72-1.48,1.22-2.12c0.63-0.8,1.3-1.59,1.95-2.39
			c0.56-0.69,1.27-1.67,1.95-2.22c0.48-0.38,0.49-0.68,0.96-0.75l0.14-0.13c0.14,0.42,0.06,0.9,0.08,1.34
			c0.52-0.28,1.02-0.86,1.62-1.15c0.21-0.1,0.29-0.39,0.53-0.33c0.27,0.07,0.54,0.71,0.7,0.94c0.34-0.71,1.01-1.2,1.29-1.97
			c0.58,1.2,1.28,1.92,1.99,2.98c0.13-0.84,0.93-1.42,1.48-1.88c0.57,0.77,1.55,1.2,2.02,2.02c0.42-0.88,1.45-2.38,2.52-2.17
			c-0.07,0.82,0.42,1.59,0.95,2.1c0.6-0.62,1.12-1.4,1.78-1.8c0.03,0.16,0.26,0.59,0.47,0.82c0.72,0.74,0.83-0.22,1.58,0.05
			c0.54,0.2,0.71,1.3,1.28,1.55c0.41,0.18,0.8-0.08,1.18-0.25c0.11-0.05,0.58-0.4,0.69-0.38c0.26,0.04,0.29,0.47,0.46,0.51
			c0.39,0.1,0.99-0.26,1.45-0.25l0.47,0.25c0.35,0.44,0.62,1.4,0.79,1.77c0.26,0.57,0.59,1.03,0.89,1.58
			c0.48,0.88,0.25,1.19,0.25,2.2c0,1.59,1.89,1.51,1.84,3.19c-0.02,0.7-0.15,1.42-0.11,2.16c0.04,0.88,0.43,1.48,0.61,2.3
			c0.17,0.75,0.11,1.52,0.32,2.28c0.14,0.5,0.29,0.99,0.41,1.49C144.79,73.66,144.69,75.44,144.59,77.55z M149.84,77.48
			c-0.09,0.41-0.22,1.12-0.39,2c-0.44,2.3-1.45,7.65-2,8.47c-0.57,0.25-1.23,0.67-1.83,1.17c-0.03-0.56-0.06-1.04-0.09-1.4
			l-0.02-0.34c-0.03-0.43-0.01-1.55,0.04-2.99c0.78-1.71,1.24-3.67,1.37-5.57c0,0,0,0,0.01,0c0.14,0.41,0.2,1.02,0.41,1.44
			c-0.05-0.48,0.14-0.93,0.41-1.29c0.1,0.26,0.23,0.56,0.4,0.78c-0.07-1.76,0.48-2.88,1.02-4.4c0.09,0.13,0.29,0.22,0.37,0.45
			c0.01-0.14,0.03-0.28,0.04-0.42C149.85,75.96,150.01,76.7,149.84,77.48z"/>
		<path class="st1" d="M168.83,121.41c-5.07-1.19-9.58-3.17-16.87-6.6c-4.09-1.93-6.26-3.86-7.37-5.17c0-0.01,0-0.03,0-0.04
			c0.19-1.87-2.1-3.82-2.37-4.04l-1.14-0.94l0.11,1.48c0,0.03,0.21,3.16-1.25,8.91c-1.45,5.74-5.47,10.96-5.51,11.01l-0.08,0.11
			l-0.03,0.13c-0.02,0.08-2.06,8.47-2.45,9.79c-0.18,0.6-1.84,2.84-3.65,4.9c-0.63,0.58-1.43,1.27-2.13,1.89
			c-0.76-0.69-1.54-1.39-2.09-1.89c-1.8-2.06-3.47-4.3-3.65-4.9c-0.39-1.32-2.43-9.71-2.45-9.79l-0.03-0.13l-0.08-0.11
			c-0.04-0.05-4.06-5.28-5.51-11.01c-1.46-5.74-1.25-8.88-1.25-8.91l0.11-1.48l-1.14,0.94c-0.26,0.22-2.55,2.17-2.37,4.04
			c0,0.01,0,0.03,0,0.04c-1.11,1.32-3.28,3.24-7.37,5.17c-7.28,3.44-11.8,5.42-16.87,6.6c-5.07,1.19-7.36,7.05-8.23,10.85
			c-0.67,2.9-1.7,11.21-2.15,14.98h106.2c-0.45-3.76-1.49-12.07-2.15-14.98C176.19,128.46,173.9,122.6,168.83,121.41z
			 M112.73,128.29c-3.08-5.55-3.58-14.41-3.76-17.75c-0.03-0.49-0.05-0.86-0.07-1.07c-0.05-0.55,0.37-1.27,0.89-1.9
			c0.08,1.52,0.36,4.12,1.27,7.74c1.42,5.6,5.04,10.55,5.65,11.37c0.26,1.08,1.96,8.03,2.4,9.59
			C116.73,133.85,114.23,130.99,112.73,128.29z M143.27,110.54c-0.19,3.34-0.68,12.2-3.76,17.75c-1.5,2.7-4,5.56-6.38,7.98
			c0.44-1.56,2.13-8.52,2.39-9.59c0.61-0.81,4.23-5.77,5.65-11.37c0.92-3.62,1.2-6.22,1.27-7.74c0.52,0.63,0.94,1.35,0.89,1.9
			C143.32,109.68,143.3,110.05,143.27,110.54z"/>
	</g>
	<g class="st0">
		<path class="st2" d="M251.56,99.16c-0.03-0.45-0.16-0.84-0.27-1.22c-0.24-0.75-0.42-1.35,0.1-2.4c0.9-1.81-2.01-5.03-3.34-6.36
			c0.59-0.44,1.62-1.17,2.75-1.78c0.39-0.21,0.62-0.59,0.64-1.07c0.12-2.38-5.06-8.01-6.71-9.13c-0.7-0.47-1.06-0.91-1.13-1.35
			c-0.07-0.51,0.25-1.16,1.07-2.14c0.17-0.2,0.35-0.55,0.3-1.08c-0.25-2.28-5.51-6.46-6.34-7.11c-0.72-0.9-8.47-10.45-15.04-13.73
			c-2.06-1.03-4.48-1.55-7.21-1.55c-3.72,0-6.93,0.97-8.1,1.36c-0.22-0.22-0.59-0.42-1.22-0.45l-0.11-0.01
			c-0.11-0.01-0.23-0.02-0.36-0.02c-0.52,0-1.35,0.11-2.55,1.07c-0.44,0.35-1.35,0.4-2.41,0.46c-1.74,0.1-3.9,0.22-6.06,1.6
			c-2.98,1.91-3.77,4.51-4.68,7.52c-0.22,0.73-0.45,1.49-0.72,2.28c-0.84,2.45-2.85,3.26-4.8,4.05c-1.03,0.42-2,0.81-2.72,1.43
			c-2.3,1.97-1.98,3.71,0.14,7.96c1.15,2.3,0.46,2.8-0.91,3.78c-0.77,0.55-1.64,1.17-2.28,2.24c-1.3,2.16-0.46,3.41,0.15,4.32
			c0.25,0.38,0.47,0.71,0.47,1.01c0,0.16-0.02,0.22-0.01,0.23c-0.09,0.06-0.47,0.11-0.81,0.15c-0.81,0.1-2.03,0.26-3.83,0.9
			c-1.36,0.49-2.19,1.21-2.47,2.16c-0.5,1.71,0.96,3.62,1.93,4.88c0.21,0.27,0.31,0.5,0.28,0.65c-0.04,0.23-0.39,0.47-0.7,0.68
			c-0.45,0.3-0.96,0.65-0.96,1.25c0,0.73,0.86,1.29,2.5,2.29c1.03,0.63,2.21,1.34,2.82,2.01c0.18,0.2,0.37,0.41,0.57,0.62
			c-0.51-0.1-1.05-0.15-1.56-0.15c-1.2,0-2.09,0.31-2.64,0.92c-0.47,0.52-0.65,1.21-0.56,2.06c0.46,4.3,4.64,4.97,4.68,4.98
			l1.85,0.27l-3.06-2.8c-0.5-0.46-0.71-1-0.54-1.43c0.2-0.5,0.84-0.73,1.54-0.53c1.08,0.31,2.83,3.15,3.95,5.35l-1.77-0.18
			c-0.35-0.03-0.65-0.05-0.92-0.05c-2.81,0-3.09,2.06-3.2,5.21c-0.04,1.17,0.31,2.15,1.04,2.91c0.31,0.32,0.66,0.57,1.03,0.77
			c-1.85,1.63-3.3,3.59-4.04,6.02c-2.22,7.22-1.05,15.63-0.38,19.21h76.13c0.68-3.58,1.84-11.99-0.38-19.21
			c-1.21-3.93-4.25-6.65-7.85-8.67c0.09-0.01,0.17-0.01,0.26-0.02c1.14-0.21,1.98-0.83,2.36-1.73c0.51-1.22,0.16-2.85-1.01-4.6
			c-0.26-0.39-0.23-0.63-0.18-0.78c0.33-1,2.84-1.87,4.67-2.51c1.37-0.48,2.56-0.89,3.2-1.39c2.01-1.54-0.06-5.89-0.56-6.87
			C251.6,101.08,251.64,100.17,251.56,99.16z M197.84,74.88c1.12-2.94,6.29-6.99,8.25-10.62c1.96-3.63,2.1-4.75,2.1-4.75
			s2.66,3.63,5.87,3.91c3.22,0.28,5.45-0.14,6.99,2.38c1.54,2.52,1.82,3.63,4.47,5.59c2.65,1.96,3.77,5.03,3.07,5.59
			c-0.7,0.56-1.54,3.77-0.7,5.17c0.84,1.4-0.56,3.63-1.26,4.05c-0.7,0.42-4.19,3.62-3.22,5.52c0.98,1.89,1.26,4.97,1.26,6.36
			c0,0.06,0,0.11,0.01,0.17l-0.31,0.6c-0.21,0.4-5.15,9.71-11.93,9.71c-6.84,0-11.56-9.6-11.6-9.69l-0.36-0.74
			c0.02-0.28,0.03-0.58,0.01-0.88c-0.14-1.96-2.66-5.17-2.66-5.17s2.66-1.68,2.93-3.91c0.28-2.24-2.93-5.03-2.93-5.03
			S196.72,77.82,197.84,74.88z M225.06,101.21c-0.11,0.14-0.54,0.52-0.99,0.93c-0.38,0.34-0.84,0.76-1.31,1.2
			c0.91-1.15,1.6-2.22,2.05-2.96C224.96,100.7,225.13,101.13,225.06,101.21z M203.38,104.67c-0.13,0.97-0.35,2.08-0.7,3.19
			c-0.03-0.14-0.05-0.28-0.09-0.41c-0.72-2.76-1.93-5.67-2.3-6.54c0.05-0.1,0.1-0.22,0.16-0.36
			C201.05,101.57,202.05,103.13,203.38,104.67z M217.9,138.57c-1.64,0.49-8.18,0.49-9.81,0c-14.32-4.29-16.48-15.4-16.74-20.03
			c0.66,0.24,1.46,0.64,2.19,1.01c1.32,0.67,2.46,1.25,3.23,1.18c1.86-0.16,4.41-3.85,4.9-4.59l0.07-0.13
			c0.05-0.15,0.92-2.78,1.08-5.49c0.82-1.55,1.3-3.26,1.57-4.78c2.1,2.12,4.85,3.95,8.06,3.95c3.64,0,6.76-2.36,9.03-4.83
			c0.25,1.84,0.8,4.15,1.96,6.11c0.03,0.05,0.06,0.11,0.09,0.16c0.09,0.14,0.18,0.28,0.28,0.42c0.06,0.08,0.11,0.17,0.17,0.25
			c0.09,0.12,0.17,0.23,0.26,0.34c0.08,0.1,0.16,0.19,0.24,0.29c0.08,0.1,0.17,0.19,0.26,0.29c0.1,0.1,0.2,0.2,0.3,0.3
			c0.09,0.08,0.17,0.17,0.26,0.24c0.12,0.1,0.24,0.2,0.37,0.29c0.09,0.07,0.17,0.13,0.26,0.2c0.15,0.1,0.3,0.2,0.45,0.29
			c0.08,0.05,0.15,0.1,0.24,0.14c0.24,0.13,0.49,0.26,0.76,0.37c0.83,0.34,1.81,0.69,2.86,1.04c0.51,0.17,1.04,0.35,1.58,0.52
			c0.04,0.01,0.08,0.03,0.11,0.04c0.44,0.15,0.9,0.3,1.36,0.45c0.02,0.01,0.05,0.01,0.07,0.02c0.43,0.14,0.87,0.29,1.31,0.45
			C234.74,120.13,234.11,133.72,217.9,138.57z"/>
	</g>
	<g class="st0">
		<path class="st3" d="M72.17,120.01c-0.67-13.41-2.27-43.36-3.42-47.99c-1.49-5.99-5.31-14.93-10.56-19.34
			c-5.25-4.41-14.1-4.57-16.98-4.31c-4.56,0.42-8.56,3.68-8.56,3.68s-4.74-2.31-8.7,2.42c-3.96,4.73-9.91,16.92-10.47,44.04
			c-0.17,8.41-0.37,14.89-0.57,19.89c-4.34,2.11-8.21,5.04-9.61,9.61c-2.22,7.22-1.06,15.62-0.39,19.23h76.35
			c0.68-3.61,1.83-12.01-0.39-19.23C77.8,124.5,75.26,121.96,72.17,120.01z M59.19,80.57c0.83,0.74,1.62,1.99,0.92,3.87
			c-0.5,1.36-0.86,2.64-1.14,3.66c-0.23,0.82-0.4,1.47-0.57,1.82l-0.06,0.13c-0.16,0.36-0.42,0.92-0.78,1.38
			C58.6,87.58,59.07,83.46,59.19,80.57z M25.2,77.44c0.06-0.88,0.18-1.68,0.35-2.33l0.43-1.22c1.13-2.44,2.75-7.93,3.42-10.28
			c1.55,1.85,5.76,6.12,14.08,9.79c8.32,3.67,12.37,5.55,14.6,6.79c-0.17,4.95-1.39,14.04-5,18.4c-5.13,6.2-7.95,9.11-11.11,9.99
			c-0.54,0.15-1.19,0.15-1.78,0c-2.86-0.79-4.78-3.13-9-8.25l-1.32-1.6C24.88,92.72,25.15,78.97,25.2,77.44z M24.05,80.59
			c0.07,2.63,0.32,6.34,1.12,9.97c-0.09-0.18-0.17-0.35-0.24-0.5l-0.06-0.14c-0.17-0.36-0.34-1-0.57-1.83
			c-0.28-1.03-0.63-2.3-1.14-3.66C22.47,82.58,23.24,81.33,24.05,80.59z M41.24,125.04c-10.94,0.01-21.92-6.47-21.89-8
			c0.98-0.34,1.95-0.66,2.86-0.96c1.65-0.54,3.21-1.06,4.45-1.57c4.49-1.86,5.7-7.33,6.02-10.58c2.83,3.34,4.63,5.03,7.2,5.74
			c0.41,0.1,0.82,0.15,1.22,0.15c0.41,0,0.8-0.05,1.16-0.15c2.36-0.65,4.48-2.27,7.27-5.26c0.39,3.28,1.7,8.33,5.97,10.09
			c1.24,0.51,2.8,1.02,4.45,1.57c0.92,0.3,1.88,0.62,2.86,0.96C62.85,118.56,52.07,125.04,41.24,125.04z"/>
	</g>
</g>
<g id="cloud">
	<g class="st0">
		<path class="st1" d="M29.68,13.66c-0.6,0.27-5.34,0.39-14.19,0.39c-2.37,0-3.84-0.06-4.41-0.24c-0.12-0.24-0.15-0.54-0.15-0.9
			c0-0.24,0-0.51,0.06-0.87c0.72-0.18,4.23-0.3,10.5-0.3c4.98,0,7.71,0.09,8.19,0.24c0.06,0.15,0.09,0.45,0.09,0.93
			C29.77,13.27,29.74,13.51,29.68,13.66z M21.04,31.66c-0.54,0-0.9-0.03-1.08-0.09c-0.57-4.11-0.96-9.48-1.14-16.08
			c0.24-0.15,0.57-0.24,1.05-0.24s0.84,0.03,1.05,0.09c0.12,0.66,0.36,3.06,0.69,7.26c0.24,3.84,0.39,6.75,0.45,8.76
			C21.79,31.57,21.46,31.66,21.04,31.66z"/>
		<path class="st1" d="M44.38,31.51c-0.75,0.03-1.35,0.03-1.77,0.03c-0.18-1.14-0.24-1.89-0.24-2.28c-1.56,1.62-3.18,2.4-4.86,2.4
			c-1.62,0-3-0.45-4.14-1.41c-1.32-1.23-1.95-2.82-1.95-4.74c0-1.98,0.66-3.63,1.98-4.89c1.14-1.02,2.52-1.53,4.11-1.56
			c1.59,0,2.88,0.63,3.84,1.89c-0.18,0.6-0.48,1.02-0.9,1.32c-0.93-0.81-1.92-1.23-2.94-1.23c-0.93,0.03-1.8,0.42-2.64,1.17
			c-0.87,0.84-1.29,1.95-1.29,3.3c0,1.2,0.36,2.22,1.14,3.06c0.75,0.78,1.68,1.14,2.82,1.14c1.53,0,3.09-0.87,4.65-2.61
			c-0.24-3.45-0.33-5.97-0.33-7.56c0.21-0.09,0.54-0.15,0.96-0.21c0.57,0,0.87,0.06,0.9,0.12c0.21,0.54,0.39,2.22,0.51,5.04
			c0.12,2.76,0.18,4.8,0.18,6.12C44.41,30.88,44.38,31.18,44.38,31.51z"/>
		<path class="st1" d="M49.57,31.51c-0.3,0.15-0.57,0.21-0.87,0.21c-0.33,0-0.63-0.06-0.9-0.15c-0.27-0.6-0.39-3.78-0.39-9.48
			c0-2.52,0.03-5.97,0.15-10.38c0.18-0.09,0.51-0.15,0.99-0.15c0.33,0,0.63,0.06,0.93,0.18c0.15,1.08,0.24,5.1,0.24,12.09
			C49.72,28.63,49.66,31.21,49.57,31.51z"/>
		<path class="st1" d="M60.73,23.08c-2.31,1.14-3.99,1.92-5.07,2.37c-0.03,0.18-0.06,1.26-0.06,3.3c-0.03,1.5-0.09,2.43-0.18,2.79
			c-0.12,0.12-0.45,0.15-0.96,0.15c-0.42,0-0.72-0.03-0.9-0.09c-0.18-0.66-0.24-2.55-0.24-5.67c0-4.62,0.15-9.39,0.48-14.25
			c0.12-0.06,0.45-0.09,0.99-0.09c0.45,0,0.75,0.03,0.93,0.09c0.03,0.21,0.06,0.93,0.06,2.16c0,1.95-0.06,5.04-0.12,9.24
			c3.93-1.89,6.87-3.24,8.85-4.08c0.12,0.12,0.3,0.3,0.51,0.6c0.12,0.18,0.24,0.45,0.33,0.81C65.14,20.74,63.61,21.64,60.73,23.08z
			 M63.82,31.72c-0.36-0.06-1.26-0.87-2.7-2.52c-1.2-1.44-1.86-2.37-2.04-2.82c0.18-0.42,0.6-0.81,1.29-1.14
			c0.3,0.12,1.05,0.87,2.28,2.25c1.38,1.62,2.19,2.64,2.43,3.06C64.84,31.03,64.42,31.42,63.82,31.72z"/>
		<path class="st1" d="M70.57,14.62c-0.3,0-0.81-0.12-1.53-0.42c-0.72-0.27-1.17-0.51-1.29-0.69c0.09-0.66,0.36-1.29,0.78-1.89
			c0.27,0,0.75,0.15,1.41,0.39c0.66,0.3,1.11,0.51,1.32,0.69C71.2,13.12,70.99,13.78,70.57,14.62z M70.48,31.51
			c-0.24,0.12-0.57,0.18-0.99,0.18c-0.51,0-0.84-0.03-0.99-0.09c-0.24-0.42-0.33-2.73-0.33-6.9c0-3.33,0.06-5.16,0.18-5.52
			c0.21-0.06,0.54-0.12,1.02-0.12c0.42,0,0.75,0.09,1.02,0.21c0.12,0.42,0.18,2.46,0.18,6.18C70.57,29.11,70.54,31.15,70.48,31.51z"
			/>
		<path class="st1" d="M76.96,31.51c-0.24,0.12-0.54,0.18-0.93,0.18c-0.42,0-0.75-0.03-0.99-0.12c-0.18-0.57-0.33-3.09-0.42-7.59
			c-0.06-1.8-0.06-3.39-0.06-4.77c0.36-0.09,0.69-0.15,0.99-0.15c0.18,0,0.51,0.03,0.93,0.09c0.09,0.72,0.18,2.25,0.3,4.65
			c0.12,2.88,0.21,5.1,0.21,6.72C76.99,31.12,76.96,31.45,76.96,31.51z M86.56,31.63c-0.9,0-1.5-0.15-1.86-0.42
			c0.51-2.97,0.78-5.1,0.78-6.36c0-1.26-0.27-2.19-0.81-2.79c-0.63-0.63-1.38-0.96-2.25-0.96c-1.02,0.06-2.25,0.48-3.75,1.26
			c-0.54-0.36-0.81-0.9-0.81-1.59c1.23-1.11,2.82-1.68,4.8-1.74c1.5,0,2.76,0.6,3.75,1.74c0.84,1.08,1.26,2.4,1.26,3.9
			C87.61,27.7,87.25,30.01,86.56,31.63z"/>
		<path class="st1" d="M99.16,22.21c-1.08-0.69-2.16-1.05-3.24-1.05c-1.14,0-2.07,0.45-2.82,1.29c-0.75,0.9-1.11,1.92-1.11,3.12
			c0,1.26,0.3,2.25,0.96,3c0.69,0.75,1.62,1.11,2.76,1.11c1.14-0.03,2.34-0.42,3.6-1.2c0.12,0.21,0.39,0.72,0.75,1.53
			c-1.32,1.14-2.73,1.71-4.23,1.77c-1.92,0-3.39-0.54-4.47-1.68c-1.08-1.2-1.59-2.73-1.59-4.62c0-1.77,0.54-3.3,1.65-4.62
			c1.14-1.23,2.61-1.86,4.41-1.86c1.56,0,2.94,0.6,4.08,1.8C99.85,21.25,99.61,21.73,99.16,22.21z M102.94,35.47
			c-0.09,0.6-0.69,1.11-1.8,1.53c-0.9,0.21-1.74,0.33-2.55,0.33c-0.66,0-1.14-0.06-1.47-0.18c-0.12-0.18-0.15-0.42-0.15-0.78
			c0-0.36,0-0.63,0.06-0.81c0.66-0.03,1.38-0.09,2.13-0.18c1.08-0.27,1.65-0.6,1.65-0.96c0.06-0.15,0.09-0.48,0.09-0.96
			c0-0.42-0.03-2.13-0.06-5.19c-0.06-2.04-0.06-3.63-0.06-4.77v-2.52c0.3-0.09,0.57-0.15,0.84-0.15c0.42,0,0.78,0.06,1.02,0.12
			c0.24,2.43,0.36,6.72,0.36,12.84C103,34.66,102.97,35.23,102.94,35.47z"/>
		<path class="st1" d="M118.03,20.47c-0.06,3.09-0.15,6.78-0.27,11.07c-0.24,0.12-0.6,0.15-1.08,0.15c-0.21,0-0.51-0.03-0.9-0.09
			c-0.06-0.96-0.09-3.39-0.09-7.35c0-3.24,0.12-7.44,0.42-12.6c0.57-0.06,0.96-0.09,1.14-0.09c0.33,0,0.66,0.06,0.96,0.15
			C118.18,13.57,118.12,16.51,118.03,20.47z M132.1,18.79c-0.12,6.81-0.21,10.98-0.33,12.51c-0.24,0.09-0.54,0.12-0.9,0.12
			c-0.36,0-0.69-0.03-0.99-0.09c-0.06-0.6-0.12-1.41-0.12-2.49c0-2.01,0-4.02,0-6.06c-4.5-0.09-7.53-0.18-9.06-0.3
			c-0.09-0.15-0.15-0.45-0.15-0.93s0.03-0.81,0.12-0.96c1.8,0,3.54-0.03,5.22-0.03c1.35,0.03,2.67,0.06,3.93,0.12
			c0.12-3.54,0.24-6.21,0.36-7.95c0.09-0.03,0.36-0.06,0.84-0.09c0.24,0,0.6,0.03,1.05,0.09C132.07,13.87,132.1,15.91,132.1,18.79z"
			/>
		<path class="st1" d="M147.19,25.96c-1.26,0.45-4.71,0.78-10.29,1.02c0.66,1.86,2.19,2.76,4.59,2.76c1.08,0,2.19-0.24,3.3-0.75
			c0.3,0.39,0.48,0.93,0.6,1.62c-1.29,0.75-2.61,1.11-3.99,1.11c-2.22-0.03-3.99-0.6-5.25-1.74c-1.11-1.08-1.65-2.49-1.65-4.17
			c0-1.86,0.45-3.36,1.41-4.53c1.32-1.53,3-2.31,5.01-2.31c1.92,0,3.42,0.54,4.56,1.59c1.2,1.2,1.83,2.67,1.86,4.44
			C147.34,25.6,147.28,25.93,147.19,25.96z M144.43,22.45c-0.78-1.02-1.95-1.56-3.48-1.56c-1.14,0-2.16,0.45-3.03,1.35
			c-0.72,0.75-1.11,1.74-1.2,3c0.99-0.06,3.78-0.3,8.4-0.69C145.09,23.83,144.85,23.11,144.43,22.45z"/>
		<path class="st1" d="M162.1,31.51c-0.75,0.03-1.35,0.03-1.77,0.03c-0.18-1.14-0.24-1.89-0.24-2.28c-1.56,1.62-3.18,2.4-4.86,2.4
			c-1.62,0-3-0.45-4.14-1.41c-1.32-1.23-1.95-2.82-1.95-4.74c0-1.98,0.66-3.63,1.98-4.89c1.14-1.02,2.52-1.53,4.11-1.56
			c1.59,0,2.88,0.63,3.84,1.89c-0.18,0.6-0.48,1.02-0.9,1.32c-0.93-0.81-1.92-1.23-2.94-1.23c-0.93,0.03-1.8,0.42-2.64,1.17
			c-0.87,0.84-1.29,1.95-1.29,3.3c0,1.2,0.36,2.22,1.14,3.06c0.75,0.78,1.68,1.14,2.82,1.14c1.53,0,3.09-0.87,4.65-2.61
			c-0.24-3.45-0.33-5.97-0.33-7.56c0.21-0.09,0.54-0.15,0.96-0.21c0.57,0,0.87,0.06,0.9,0.12c0.21,0.54,0.39,2.22,0.51,5.04
			c0.12,2.76,0.18,4.8,0.18,6.12C162.13,30.88,162.1,31.18,162.1,31.51z"/>
		<path class="st1" d="M170.23,19c1.56,0.03,2.91,0.48,3.99,1.35c0,0.48-0.21,1.02-0.57,1.56c-1.26-0.54-2.37-0.81-3.33-0.87
			c-2.46,0.09-3.78,1.53-3.9,4.32c0.03,2.82,1.38,4.23,4.05,4.26c0.66,0,1.68-0.3,3-0.9c0.18,0.24,0.33,0.45,0.39,0.66
			c0.06,0.18,0.15,0.51,0.27,0.99c-1.14,0.9-2.37,1.32-3.66,1.32c-4.02-0.09-6.09-2.16-6.24-6.21
			C164.38,21.34,166.39,19.18,170.23,19z M177.49,31.51c-0.21,0.12-0.51,0.18-0.87,0.18c-0.45,0-0.78-0.03-0.96-0.12
			c-0.21-0.39-0.3-3.48-0.3-9.27c0-6.72,0.06-10.26,0.21-10.62c0.39-0.06,0.69-0.12,0.93-0.12c0.21,0,0.51,0.03,0.93,0.09
			c0.12,0.9,0.21,4.62,0.21,11.16C177.64,27.61,177.58,30.52,177.49,31.51z"/>
		<path class="st1" d="M190.51,21.73c-0.15,0.3-0.33,0.51-0.57,0.66c-1.62-1.08-3.24-1.65-4.92-1.65c-1.83,0-2.73,0.48-2.73,1.41
			c0,0.66,0.51,1.2,1.56,1.62c1.74,0.78,2.88,1.29,3.36,1.53c1.41,0.75,2.13,1.8,2.13,3.12c-0.18,2.22-1.62,3.3-4.35,3.36
			c-1.74,0-3.27-0.75-4.62-2.25c0.06-0.18,0.21-0.45,0.45-0.78c0.09-0.09,0.27-0.27,0.54-0.54c1.29,1.11,2.52,1.65,3.66,1.65
			c1.32,0,2.04-0.51,2.13-1.47c0-0.69-0.51-1.32-1.53-1.86c-0.3-0.12-1.32-0.57-3.09-1.29c-1.68-0.72-2.49-1.74-2.49-3.12
			c0.03-1.11,0.6-1.95,1.71-2.55c0.75-0.42,1.86-0.66,3.33-0.66c2.16,0.06,4.08,0.72,5.73,2.01
			C190.81,21.13,190.69,21.4,190.51,21.73z"/>
		<path class="st1" d="M201.48,33.78c-1.96-1.79-2.94-3.94-2.94-6.47c0-2.52,0.96-4.66,2.93-6.44l0.77,0.6
			c-1.78,1.7-2.66,3.64-2.66,5.84c0,2.19,0.88,4.13,2.66,5.81L201.48,33.78z"/>
		<path class="st1" d="M204.2,31.68c-0.22,0-0.38-0.01-0.44-0.01c-0.12-0.43-0.22-1.39-0.28-2.87c-0.04-1.01-0.06-1.85-0.06-2.54
			c0-0.14,0-0.27,0.02-0.39c0.14-0.06,0.28-0.08,0.39-0.08c0.22,0,0.38,0.01,0.48,0.04c0.08,0.5,0.15,1.37,0.22,2.61
			c0.04,1.18,0.07,2.09,0.07,2.72v0.42C204.49,31.65,204.37,31.68,204.2,31.68z M211.93,30.42c-0.15,0.76-0.28,1.18-0.37,1.25
			c-0.42,0-0.67-0.06-0.78-0.18c0.2-1.4,0.29-2.3,0.29-2.72c0-0.35-0.07-0.66-0.18-0.91c-0.2-0.28-0.43-0.43-0.7-0.45
			c-0.45,0.01-1.13,0.5-2.06,1.47c-0.56-1.37-1.15-2.07-1.75-2.09c-0.42,0-0.84,0.24-1.26,0.71c-0.04-0.03-0.11-0.14-0.21-0.32
			c-0.1-0.17-0.14-0.31-0.14-0.41c0.48-0.66,1.02-0.99,1.67-1.01c0.77,0.01,1.43,0.59,1.96,1.72c0.59-0.73,1.18-1.09,1.79-1.11
			c0.63,0,1.13,0.28,1.51,0.84c0.25,0.42,0.38,0.94,0.38,1.57C212.07,29.46,212.02,30,211.93,30.42z"/>
		<path class="st1" d="M218.29,31.56c-0.06-0.27-0.13-0.59-0.18-0.98c-0.66,0.73-1.43,1.09-2.33,1.11c-1.01,0-1.74-0.28-2.16-0.85
			c-0.37-0.45-0.56-1.09-0.56-1.95c0-0.77,0.2-1.81,0.62-3.11c0.32,0.03,0.59,0.11,0.8,0.25c-0.29,1.23-0.43,2.17-0.43,2.79
			c0,0.62,0.11,1.08,0.35,1.36c0.28,0.39,0.76,0.57,1.4,0.57c0.79,0,1.48-0.35,2.13-1.06c-0.24-1.9-0.38-3.15-0.42-3.73
			c0.17-0.11,0.45-0.17,0.81-0.18c0.14,0.39,0.31,1.42,0.52,3.08c0.17,1.46,0.25,2.31,0.28,2.55
			C218.79,31.52,218.51,31.56,218.29,31.56z"/>
		<path class="st1" d="M222.26,25.85c0.92,0,1.6,0.04,1.99,0.11c0,0.13,0.01,0.25,0.03,0.38c0,0.17-0.01,0.29-0.03,0.38
			c-0.08,0.03-0.34,0.06-0.74,0.08c-0.42,0.03-0.86,0.03-1.33,0.03c-0.08,1.95-0.14,3.18-0.14,3.71c0,0.14,0.07,0.21,0.24,0.21
			c0.04,0,0.2-0.01,0.45-0.04c0.34-0.07,0.63-0.13,0.87-0.15c0.06,0.1,0.08,0.24,0.1,0.42c0,0.06-0.01,0.15-0.01,0.29
			c-0.52,0.28-1.11,0.41-1.75,0.41c-0.36,0-0.63-0.1-0.77-0.31c-0.11-0.15-0.17-0.39-0.17-0.71c0-0.81,0.04-2.1,0.15-3.85
			c-0.49,0-0.94-0.04-1.36-0.11c-0.03-0.07-0.04-0.2-0.04-0.39c0-0.15,0.01-0.28,0.04-0.39c0.5-0.04,0.98-0.07,1.43-0.07
			c0.08-1.13,0.17-2.2,0.27-3.21c0.2,0,0.5,0.03,0.91,0.06C222.34,23.76,222.3,24.81,222.26,25.85z"/>
		<path class="st1" d="M230.9,29c-0.59,0.21-2.2,0.36-4.8,0.48c0.31,0.87,1.02,1.29,2.14,1.29c0.51,0,1.02-0.11,1.54-0.35
			c0.14,0.18,0.22,0.43,0.28,0.76c-0.6,0.35-1.22,0.52-1.86,0.52c-1.04-0.01-1.86-0.28-2.45-0.81c-0.52-0.5-0.77-1.16-0.77-1.95
			c0-0.87,0.21-1.57,0.66-2.12c0.62-0.71,1.4-1.08,2.34-1.08c0.9,0,1.6,0.25,2.13,0.74c0.56,0.56,0.86,1.25,0.87,2.07
			C230.97,28.83,230.94,28.99,230.9,29z M229.61,27.36c-0.36-0.48-0.91-0.73-1.62-0.73c-0.53,0-1.01,0.21-1.41,0.63
			c-0.34,0.35-0.52,0.81-0.56,1.4c0.46-0.03,1.77-0.14,3.92-0.32C229.92,28.01,229.81,27.67,229.61,27.36z"/>
		<path class="st1" d="M234.61,25.75c0.73,0.01,1.36,0.22,1.86,0.63c0,0.22-0.1,0.48-0.27,0.73c-0.59-0.25-1.11-0.38-1.55-0.41
			c-1.15,0.04-1.76,0.71-1.82,2.02c0.01,1.32,0.64,1.98,1.89,1.99c0.31,0,0.79-0.14,1.4-0.42c0.08,0.11,0.15,0.21,0.18,0.31
			c0.03,0.08,0.07,0.24,0.12,0.46c-0.53,0.42-1.11,0.62-1.71,0.62c-1.88-0.04-2.84-1.01-2.91-2.9
			C231.87,26.84,232.81,25.84,234.61,25.75z M238,31.59c-0.1,0.06-0.24,0.08-0.41,0.08c-0.21,0-0.36-0.01-0.45-0.06
			c-0.1-0.18-0.14-1.62-0.14-4.33c0-3.14,0.03-4.79,0.1-4.96c0.18-0.03,0.32-0.06,0.44-0.06c0.1,0,0.24,0.01,0.43,0.04
			c0.06,0.42,0.1,2.16,0.1,5.21C238.07,29.77,238.04,31.13,238,31.59z"/>
		<path class="st1" d="M240,33.78l-0.76-0.66c1.76-1.68,2.66-3.63,2.66-5.81c0-2.2-0.9-4.15-2.66-5.84l0.77-0.6
			c1.95,1.78,2.93,3.92,2.93,6.44C242.94,29.84,241.96,31.99,240,33.78z"/>
	</g>
	<g>
	</g>
	<g>
	</g>
	<g>
	</g>
	<g>
	</g>
	<g>
	</g>
	<g>
	</g>
</g>
</svg>
