<?xml version="1.0" encoding="utf-8"?>
<!-- Generator: Adobe Illustrator 24.2.3, SVG Export Plug-In . SVG Version: 6.00 Build 0)  -->
<svg width="255px" height="150px" version="1.1" id="Layer_1" xmlns="http://www.w3.org/2000/svg" xmlns:xlink="http://www.w3.org/1999/xlink" x="0px" y="0px"
	 viewBox="0 0 510 300" style="enable-background:new 0 0 510 300;" xml:space="preserve">
<style type="text/css">
	.st0{opacity:0.28;}
	.st1{fill-rule:evenodd;clip-rule:evenodd;fill:#3670A4;}
	.st2{fill:#3670A4;}
	.st3{fill-rule:evenodd;clip-rule:evenodd;fill:#FFFFFF;}
	.st4{fill:#FFFFFF;}
</style>
<g>
	<g class="st0">
		<path class="st1" d="M379.72,262.96c0.98,0.66,0.42,1.99-0.78,1.48c-65.82-28.31-269.87,57.65-264.69-34.32
			c0.17-3.07,2.03-4.41,2.25-2.44C122.01,279.39,337.07,234.45,379.72,262.96L379.72,262.96z"/>
		<g>
			<path class="st2" d="M74.32,192.01c4.01-7.52-9.36-8.06-13.84-4.81c-10.51,7.62-15.95,22.63-18.69,32.53
				c-5.59,5.08-18.11,14.84-19.1,12.18c-10.02-27.05,31.03-89.9,57.46-103.16c5.1-2.54,11.99-1.58,10.49,10.79
				c-0.22,1.81-0.67,3.7-1.34,5.66c-0.47,1.37,0.44,2.83,1.87,3.06c1.11,0.17,2.18-0.47,2.57-1.52c1.51-4.06,2.51-8.2,2.86-12.26
				c0.85-10.11-7.23-17.85-16.95-17.34c-58.91,3.18-100.17,109.44-63.28,119.21c9.87,2.61,17.3-3.86,24.6-10.32
				c-0.77,6.3-4.21,15.81,3.2,18.93c4,1.68,12.68,2.53,13.08-4.15C58.27,223.63,66.62,206.42,74.32,192.01z"/>
			<path class="st2" d="M305.13,167.14c2.07-8.61-14.53-12.68-17.4-4.42C284.61,171.59,303.21,175.06,305.13,167.14z"/>
			<path class="st2" d="M136.01,178.91c-0.25-7.49-10.11-12.63-15.36-8.9c-8.54,6.07-15.14,14.26-21.22,22.74
				c5.6-8.6,0.89-26.52-12.95-22.3c-3.54,19.47-21.61,34.87-20.01,56.78c0.47,6.59,15.17,9.68,17.02,4.01
				c6.9-21.15,18.64-42.46,35.66-55.97c0.91-0.72-15.19,18.01-13.8,32.65c0.92,9.68,22.61,7.86,24.52,1.13
				c0.28-1.02-0.09-3.51-1.22-2.67c-0.87,0.63-1.84,0.55-2.53,0.19C123.46,205.21,136.38,189.06,136.01,178.91z"/>
			<path class="st2" d="M508.7,192.82c-9.46,2.01-22.02,7.76-34.71,15.95c4.28-16.05,10.47-28.55,23.85-30.19
				c-2.74-12.97-45.87-14.4-52.98,30.92c-0.82,5.25-0.78,14.18-1.31,24.15c-12.36,12.88-21.76,27.51-23.89,42
				c-0.01,0.4,2.56,3.23,2.71,2.57c3.3-13.43,10.88-25.88,20.65-36.89c-1.78,20.16-7.14,41.74-26.8,45.13
				c10.48,8.1,29.68,0.17,37.54-10.95c10.77-14.78,13.79-38.88,18.43-59.38c12.04-8.16,24.44-14.45,35.06-18.38
				C508.73,197.19,510.59,192.42,508.7,192.82z"/>
			<path class="st2" d="M443.8,187.61c-14.92-12.79-32.69,11.31-44.64,29.79c-2.53,6.03-13.52,12.71-13.2,10.96
				c2.08-11.6,18.57-49.97,34.63-46.62c-1.54-9.87-10.45-12.71-18.73-10.43c-14.54,4.03-31.48,24.15-34.25,51.8
				c-0.01,0.05,0,0.09-0.01,0.14c-7.72,11.19-21.36,21.51-21.81,20.09c-1.04-13.6,23.89-38.48,25.35-62.52
				c0.64-10.35-11.78-14.44-19.1-11.63c-10.17,3.92-16.35,14.18-23.39,22.38c2.75-13.98-4.77-22.41-13.79-20.93
				c-1.67,12.31-9.92,27.35-15.36,41.36c-4.96,4.77-18.13,14.95-18.28,12.03c-0.4-8.3,13.24-28.83,17.13-41.57
				c2.63-8.62-14.36-8.92-19.47-2.23c-5.84,7.67-13.98,21.84-17.41,33.56c-10.32,11.03-17.34,14.7-16.75,12.78
				c1.55-4.92,20.73-37.08,26.83-60.48c3.59-0.16,6.98-0.35,10.08-0.6c3.04-0.42,1.62-2.35,1.02-2.75
				c-1.43-1.01-5.02-1.59-9.94-1.86c2.33-13.01-0.81-21.94-15.91-19.19c-1.63,6.63-3.93,13.1-6.52,19.41
				c-20.32,0.98-43.37,3.52-48.2,4.88c-2.9,0.82-3.43,2.88-0.24,2.61c13.67-1.19,30.3-1.49,46.03-1.82
				c-6.08,13.79-13.07,26.8-16.99,39.02c-0.14,0.09-0.31,0.26-0.52,0.54c-5.65,7.63-21.32,21.76-32.57,23.6
				c-2.77,0.44,0.51-14.22,2.54-19.14c12.13-2.17,23.57-9.8,26.18-20.45c1.79-7.28,1.61-17.15-11.25-19.53
				c-17.5-3.22-37.29,20.44-37.08,41.19c-6.05,7.31-16.22,16.16-26.35,17.82c-2.78,0.46,0.48-14.23,2.54-19.14
				c12.13-2.17,23.57-9.8,26.18-20.43c1.8-7.31,1.61-17.15-11.25-19.53c-22.4-4.15-48.53,35.74-31.77,57.2
				c10.59,13.56,31.01,1.82,41.13-10.86c0.72,3.94,2.28,7.67,4.85,10.97c3.53,4.55,8.18,6.1,13.19,6.08
				c9.27-0.04,24.92-11.47,32.04-20.07c-0.83,4.29-1.15,8.48-0.73,12.57c0.75,7.35,9.58,9.28,16.64,5.75
				c6.25-3.13,12.39-8.84,15.52-12.63c-0.1,0.67-0.18,1.32-0.22,1.95c-0.65,8.98,5.05,12.95,12.24,12.76
				c7.32-0.18,18.24-9.07,24.89-15.48c-0.76,2.46-1.39,4.86-1.8,7.19c-1.72,9.58,17.83,10.45,20.95,4.33
				c9.42-18.49,18.33-41.28,35.5-53.28c1.48,3.6-37.79,60.01-18.79,71.37c10.76,6.43,26.05-6.93,35.53-20.01
				c1.88,4.12,6.57,6.28,11.8,6.12c5.74-0.18,14.56-4.31,17.27-7.9c-6.03,21.36-5.73,58.21-20.84,63.95
				c-6.2,2.37-8.26-4.08-8.06-10.82c0.25-7.37,2.41-14.87,11-15.86c0.3-0.03,0.88-0.68,0-0.96c-11.92-3.91-18.03,6.21-18.49,16.56
				c-0.26,6.07,1.61,12.22,6.19,15.79c9.49,7.36,24.4,1.39,32.67-6.62C429.13,260.68,411.01,209.39,443.8,187.61z M217.54,177.83
				c8.46,3.91,3.73,22.66-16.08,29.08C205,196.85,215.29,176.8,217.54,177.83z M171.58,177.72c8.47,3.91,3.73,22.66-16.08,29.08
				C159.04,196.75,169.31,176.69,171.58,177.72z"/>
		</g>
		<path class="st1" d="M245.42,18.08c0.29-1.12,0.05-2.89-0.91-1.38c-14.4,22.16-124.63-26.06-134.05,28.6
			c-0.47,2.77,1.46,0.54,1.82,0.06C141.88,7.75,234.23,61.34,245.42,18.08L245.42,18.08z"/>
		<g>
			<path class="st2" d="M102.49,35.15c1.99-11.87,12.35-25.24,24.56-24.68c18.51,0.84,6.07,36.56-14.16,48.66
				c-1.24,0.75,2.77-1.03,4.05-1.58c22.87-9.55,31.67-46.5,16.53-51.96C111.48-2.36,84.1,17.16,82.81,41.01
				c-1.26,23.51,10.38,44.39,12.28,67.39c-11.38-9.74-31.31-13.56-44.55-2.34c-11.13,9.45-12.92,26.1-6.67,37.74
				c8.67,16.1,32.41,21.55,48.49,10.19c23.62-16.68,26.22-49.39,19.4-73.54C107.61,65.78,99.78,51.36,102.49,35.15z M73.44,152.16
				c-14,2.11-30.42-10.78-27.29-29.72c1.66-9.99,12.58-19.25,22.54-19.99c12.9-0.99,26.58,7.62,25.95,21
				C94.07,135.39,89.44,149.77,73.44,152.16z"/>
			<path class="st2" d="M291.45,46.25c-5.52-9.53-22.06-6.23-30.9-0.69c-16.98,10.68-14.57,32.82-15.94,49.53
				c-1.66,20.33-8.3,56.64-23.51,57.67c-6.35,0.44-14.55-11.71-2.33-21.93c2.52-2.24-12.81-0.11-10.11,17.47
				c2.03,13.23,19.27,13.23,28.76,6.47C283.85,121.65,262.85,63.71,291.45,46.25z"/>
			<path class="st2" d="M468.79,77.09c-8.23,2.56-21.54,7.32-35.67,13.62c4.69-21.59,9.69-40.4,24.83-42.5
				c-4.27-11.47-23.82-9.1-32.7-1.21c-15.63,13.9-13.53,37.04-15.56,55.44c-19.55,11.11-35.99,24.61-37.02,38.63
				c-0.59,7.83,3.98,12.76,10.24,14.96c7.67,2.71,17.95,1.34,24.55-3.8c14.68-11.42,19.8-34.2,24.38-55.57
				c21.96-10.07,44.97-17.09,56.68-17.29C491,79.34,480.98,73.27,468.79,77.09z M389.32,151.23c-3.73,0.89-10.92-1.13-10.7-10.2
				c0.24-10.36,13.08-21.97,30.19-32.29C406.59,122.37,400.88,148.45,389.32,151.23z"/>
			<path class="st2" d="M324.69,51.26c0.42-6.39-9.83-6.43-14.69-5.69c-21.47,3.31-34.56,27.92-33.03,47.75
				c0.93,11.94,15.06,16.98,25.99,13.24C319.31,100.9,338.47,67.42,324.69,51.26z M300.12,101.94c-4.82,0.87,6.81-42.62,22.78-49.57
				C332.67,69.25,315.96,99.05,300.12,101.94z"/>
			<path class="st2" d="M221.52,107.09c4.58-1.33,11.81-7.09,14.12-11.64c0.7-1.4,1.15-5.74-0.16-3.88
				c-3.54,4.95-11.05,9.91-10.65,8.61c4.45-14.21,16.26-40.5,22.07-45.87c-2.77-6.63-18.31-6.77-21-1.32
				c-7.58-8.88-21.43-9.52-31.07-4.82c-8.81,4.29-20,20.91-23.54,35.48c-0.09,0.09-0.19,0.21-0.31,0.36
				c-5.74,7.6-17.08,18.31-28.11,20.15c-2.71,0.45,0.91-14.18,3.03-19.1c11.89-2.18,23.29-9.78,26.15-20.4
				c1.95-7.3,2.07-17.12-10.42-19.51c-21.72-4.13-48.38,35.69-32.64,57.13c10.12,13.82,31.07,1.28,41.1-11.68
				c0.04-0.06,0.09-0.12,0.13-0.19c-0.46,7.4,1.84,13.52,8.54,16c14.06,5.18,23.28-14.29,30.37-23.74
				c-0.57,6.86-4.78,15.22,0.55,20.77C213.44,107.36,219.63,107.64,221.52,107.09z M163.67,52.17c8.12,3.89,2.98,22.6-16.53,29.03
				C150.88,71.16,161.49,51.11,163.67,52.17z M189.11,94.44c-3.91-0.13,5.9-19.83,16.13-29.98c6.08-6.02,12.86-6.73,12.56-5.59
				C213.87,73.03,195.36,94.66,189.11,94.44z"/>
			<path class="st2" d="M388.16,101.67c-7.38,10.67-16.81,17.19-16.54,15.57c5.19-22.36,24.87-38.16,26.95-61.62
				c0.89-10.11-11.13-14.08-18.34-11.35c-10.02,3.83-16.34,13.82-23.41,21.81c3.05-13.63-4.05-21.85-12.92-20.39
				c-2.63,16.2-17.1,37.25-20.63,54.15c-1.94,9.32,17.13,10.17,20.32,4.21c9.71-18.03,19.03-40.25,36.1-51.98
				c1.32,3.52-39.02,59.2-20.83,70.25c4.16,2.52,10.45,1.8,12.73,0.49c8.25-4.72,16.66-14.17,21.51-23.47
				C394.04,97.58,390.7,98.03,388.16,101.67z"/>
			<path class="st2" d="M412.42,55.52c-0.55-7.38,11.12-19.62-1.13-21.28C406.48,33.58,398.53,52.45,412.42,55.52z"/>
		</g>
	</g>
	<g>
		<path class="st3" d="M377.83,260.39c0.98,0.66,0.42,1.99-0.78,1.48c-65.82-28.31-269.87,57.65-264.69-34.32
			c0.17-3.07,2.03-4.41,2.25-2.44C120.12,276.81,335.18,231.88,377.83,260.39L377.83,260.39z"/>
		<g>
			<path class="st4" d="M72.43,189.44c4.01-7.52-9.36-8.06-13.84-4.81c-10.51,7.62-15.95,22.63-18.69,32.53
				c-5.59,5.08-18.11,14.84-19.1,12.18c-10.02-27.05,31.03-89.9,57.46-103.16c5.1-2.54,11.99-1.58,10.49,10.79
				c-0.22,1.81-0.67,3.7-1.34,5.66c-0.47,1.37,0.44,2.83,1.87,3.05c1.11,0.17,2.18-0.47,2.57-1.52c1.51-4.06,2.51-8.2,2.86-12.26
				c0.85-10.11-7.23-17.85-16.95-17.34C18.86,117.74-22.4,224,14.49,233.77c9.87,2.61,17.3-3.86,24.6-10.32
				c-0.77,6.3-4.21,15.81,3.2,18.93c4,1.68,12.68,2.53,13.08-4.15C56.39,221.05,64.74,203.85,72.43,189.44z"/>
			<path class="st4" d="M303.24,164.56c2.07-8.61-14.53-12.68-17.4-4.42C282.72,169.02,301.32,172.49,303.24,164.56z"/>
			<path class="st4" d="M134.12,176.34c-0.25-7.49-10.11-12.63-15.36-8.9c-8.54,6.07-15.14,14.26-21.22,22.74
				c5.6-8.6,0.89-26.52-12.95-22.3c-3.54,19.47-21.61,34.87-20.01,56.78c0.47,6.59,15.17,9.68,17.02,4.01
				c6.9-21.15,18.64-42.46,35.66-55.97c0.91-0.72-15.19,18.01-13.8,32.65c0.92,9.68,22.61,7.86,24.52,1.13
				c0.28-1.02-0.09-3.51-1.22-2.67c-0.87,0.63-1.84,0.55-2.53,0.19C121.57,202.63,134.49,186.49,134.12,176.34z"/>
			<path class="st4" d="M506.81,190.25c-9.46,2.01-22.02,7.76-34.71,15.94c4.28-16.05,10.47-28.55,23.85-30.19
				c-2.74-12.97-45.87-14.4-52.98,30.92c-0.82,5.25-0.78,14.18-1.31,24.15c-12.36,12.88-21.76,27.51-23.89,42
				c-0.01,0.4,2.56,3.23,2.71,2.57c3.3-13.43,10.88-25.88,20.65-36.89c-1.78,20.16-7.14,41.74-26.8,45.13
				c10.48,8.1,29.68,0.17,37.54-10.95c10.77-14.78,13.79-38.88,18.43-59.38c12.04-8.16,24.44-14.45,35.06-18.38
				C506.84,194.61,508.7,189.85,506.81,190.25z"/>
			<path class="st4" d="M441.92,185.04c-14.92-12.79-32.69,11.31-44.64,29.79c-2.53,6.03-13.52,12.71-13.2,10.96
				c2.08-11.6,18.57-49.97,34.63-46.62c-1.54-9.87-10.45-12.71-18.73-10.43c-14.54,4.03-31.48,24.15-34.25,51.8
				c-0.01,0.05,0,0.09-0.01,0.14c-7.72,11.2-21.36,21.51-21.81,20.09c-1.04-13.6,23.89-38.48,25.35-62.52
				c0.64-10.35-11.78-14.44-19.1-11.63c-10.17,3.92-16.35,14.18-23.39,22.38c2.75-13.98-4.77-22.41-13.79-20.93
				c-1.67,12.32-9.92,27.35-15.36,41.36c-4.96,4.77-18.13,14.95-18.28,12.03c-0.4-8.3,13.24-28.83,17.13-41.57
				c2.63-8.62-14.36-8.92-19.47-2.23c-5.84,7.67-13.98,21.84-17.4,33.56c-10.32,11.03-17.34,14.7-16.75,12.78
				c1.55-4.92,20.73-37.08,26.83-60.48c3.59-0.16,6.98-0.35,10.08-0.6c3.04-0.42,1.62-2.35,1.02-2.75
				c-1.43-1.01-5.02-1.59-9.94-1.86c2.33-13.01-0.81-21.94-15.91-19.19c-1.63,6.63-3.93,13.1-6.52,19.41
				c-20.32,0.98-43.37,3.52-48.2,4.88c-2.9,0.82-3.43,2.88-0.24,2.61c13.67-1.19,30.3-1.49,46.03-1.82
				c-6.08,13.79-13.07,26.8-16.99,39.02c-0.14,0.09-0.31,0.26-0.52,0.54c-5.65,7.63-21.32,21.76-32.57,23.6
				c-2.77,0.44,0.51-14.22,2.54-19.14c12.13-2.17,23.57-9.8,26.18-20.45c1.79-7.28,1.61-17.15-11.25-19.53
				c-17.5-3.22-37.29,20.44-37.08,41.19c-6.05,7.31-16.22,16.16-26.35,17.82c-2.78,0.46,0.48-14.23,2.54-19.14
				c12.13-2.17,23.57-9.8,26.18-20.43c1.8-7.31,1.61-17.15-11.25-19.53c-22.4-4.15-48.53,35.74-31.77,57.2
				c10.59,13.56,31.01,1.82,41.14-10.86c0.72,3.94,2.28,7.67,4.85,10.97c3.53,4.55,8.18,6.1,13.19,6.08
				c9.27-0.04,24.92-11.47,32.04-20.07c-0.83,4.29-1.15,8.48-0.73,12.57c0.75,7.35,9.58,9.28,16.64,5.75
				c6.25-3.13,12.39-8.84,15.52-12.63c-0.1,0.67-0.18,1.32-0.22,1.95c-0.65,8.98,5.05,12.95,12.24,12.76
				c7.32-0.18,18.24-9.07,24.89-15.48c-0.76,2.46-1.39,4.86-1.8,7.19c-1.72,9.58,17.83,10.45,20.95,4.33
				c9.42-18.49,18.33-41.28,35.5-53.28c1.48,3.6-37.79,60.01-18.79,71.37c10.76,6.43,26.05-6.93,35.53-20.01
				c1.88,4.12,6.57,6.28,11.8,6.12c5.74-0.18,14.56-4.31,17.27-7.9c-6.03,21.36-5.73,58.21-20.84,63.95
				c-6.2,2.37-8.26-4.08-8.06-10.82c0.25-7.37,2.41-14.87,11-15.86c0.3-0.03,0.88-0.68,0-0.96c-11.92-3.91-18.03,6.21-18.49,16.56
				c-0.26,6.07,1.61,12.22,6.19,15.78c9.49,7.37,24.4,1.39,32.67-6.62C427.24,258.11,409.12,206.81,441.92,185.04z M215.65,175.26
				c8.46,3.91,3.73,22.66-16.08,29.08C203.12,194.28,213.41,174.23,215.65,175.26z M169.69,175.15c8.46,3.91,3.73,22.66-16.08,29.08
				C157.15,194.17,167.42,174.12,169.69,175.15z"/>
		</g>
		<path class="st3" d="M243.53,15.51c0.29-1.12,0.05-2.89-0.91-1.38c-14.4,22.16-124.63-26.06-134.05,28.6
			c-0.47,2.77,1.46,0.54,1.82,0.06C139.99,5.18,232.35,58.77,243.53,15.51L243.53,15.51z"/>
		<g>
			<path class="st4" d="M100.6,32.58c1.99-11.87,12.35-25.24,24.56-24.68c18.51,0.84,6.07,36.56-14.16,48.66
				c-1.24,0.75,2.77-1.03,4.05-1.58c22.87-9.55,31.67-46.5,16.53-51.96c-21.99-7.95-49.37,11.57-50.66,35.42
				c-1.26,23.51,10.38,44.39,12.28,67.39c-11.38-9.74-31.31-13.57-44.54-2.34c-11.13,9.45-12.92,26.1-6.67,37.74
				c8.67,16.1,32.41,21.55,48.49,10.19c23.62-16.68,26.22-49.39,19.4-73.54C105.73,63.2,97.9,48.79,100.6,32.58z M71.55,149.59
				c-14,2.11-30.42-10.78-27.29-29.72c1.66-9.99,12.58-19.25,22.54-19.99c12.9-0.99,26.58,7.62,25.95,21
				C92.18,132.82,87.55,147.2,71.55,149.59z"/>
			<path class="st4" d="M289.56,43.68c-5.52-9.53-22.06-6.23-30.9-0.69c-16.98,10.68-14.57,32.82-15.93,49.53
				c-1.66,20.33-8.3,56.64-23.51,57.67c-6.35,0.44-14.55-11.71-2.33-21.93c2.52-2.24-12.81-0.11-10.11,17.47
				c2.03,13.23,19.27,13.23,28.76,6.47C281.96,119.08,260.96,61.13,289.56,43.68z"/>
			<path class="st4" d="M466.91,74.52c-8.23,2.56-21.54,7.32-35.67,13.62c4.69-21.59,9.69-40.4,24.83-42.5
				c-4.27-11.47-23.82-9.1-32.7-1.21c-15.63,13.9-13.53,37.04-15.56,55.44c-19.55,11.11-35.99,24.61-37.02,38.63
				c-0.59,7.83,3.98,12.76,10.24,14.96c7.67,2.71,17.95,1.34,24.55-3.8c14.68-11.42,19.8-34.2,24.38-55.57
				c21.96-10.07,44.97-17.09,56.68-17.29C489.11,76.76,479.1,70.7,466.91,74.52z M387.44,148.66c-3.73,0.89-10.92-1.13-10.7-10.2
				c0.24-10.36,13.08-21.97,30.19-32.29C404.71,119.79,398.99,145.88,387.44,148.66z"/>
			<path class="st4" d="M322.8,48.68c0.42-6.39-9.83-6.43-14.69-5.69c-21.47,3.31-34.56,27.92-33.03,47.75
				c0.93,11.94,15.06,16.98,25.99,13.24C317.42,98.33,336.59,64.85,322.8,48.68z M298.23,99.36c-4.82,0.87,6.81-42.62,22.78-49.57
				C330.78,66.68,314.07,96.47,298.23,99.36z"/>
			<path class="st4" d="M219.63,104.51c4.58-1.33,11.81-7.09,14.12-11.64c0.7-1.4,1.15-5.74-0.16-3.88
				c-3.54,4.95-11.05,9.91-10.65,8.61c4.45-14.21,16.26-40.5,22.07-45.87c-2.77-6.63-18.31-6.77-21-1.32
				c-7.58-8.88-21.43-9.52-31.07-4.82c-8.81,4.29-20,20.91-23.54,35.48c-0.09,0.09-0.19,0.21-0.31,0.36
				c-5.74,7.6-17.08,18.31-28.11,20.15c-2.71,0.45,0.91-14.18,3.03-19.1c11.89-2.18,23.29-9.78,26.15-20.4
				c1.95-7.3,2.07-17.12-10.42-19.51c-21.72-4.13-48.38,35.69-32.64,57.13c10.12,13.82,31.07,1.28,41.1-11.68
				c0.04-0.05,0.09-0.12,0.13-0.19c-0.46,7.4,1.84,13.52,8.54,16c14.06,5.18,23.28-14.29,30.37-23.74
				c-0.57,6.86-4.78,15.22,0.55,20.77C211.55,104.78,217.74,105.06,219.63,104.51z M161.78,49.59c8.12,3.89,2.98,22.6-16.53,29.03
				C149,68.58,159.6,48.54,161.78,49.59z M187.22,91.87c-3.91-0.13,5.9-19.83,16.13-29.98c6.08-6.02,12.86-6.73,12.56-5.59
				C211.98,70.46,193.47,92.09,187.22,91.87z"/>
			<path class="st4" d="M386.27,99.1c-7.38,10.67-16.81,17.19-16.54,15.57c5.19-22.36,24.87-38.16,26.95-61.62
				c0.89-10.11-11.13-14.08-18.34-11.35c-10.02,3.83-16.34,13.82-23.41,21.81c3.05-13.63-4.05-21.85-12.92-20.39
				c-2.63,16.2-17.1,37.25-20.63,54.15c-1.94,9.32,17.13,10.17,20.32,4.21c9.71-18.03,19.03-40.25,36.1-51.98
				c1.32,3.52-39.02,59.2-20.83,70.25c4.16,2.52,10.45,1.8,12.73,0.49c8.25-4.72,16.66-14.17,21.51-23.47
				C392.15,95,388.81,95.46,386.27,99.1z"/>
			<path class="st4" d="M410.53,52.95c-0.55-7.38,11.12-19.62-1.13-21.28C404.59,31.01,396.64,49.88,410.53,52.95z"/>
		</g>
	</g>
</g>
<g>
</g>
<g>
</g>
<g>
</g>
<g>
</g>
<g>
</g>
<g>
</g>
</svg>
